
        <svg xmlns="http://www.w3.org/2000/svg" xmlns:xlink="http://www.w3.org/1999/xlink" version="1.1" width="3139.2111368909514" 
        height="946.6357308584686" viewBox="0 0 3139.2111368909514 946.6357308584686">
			<rect fill="#48ad9f" width="3139.2111368909514" height="946.6357308584686"/>
			<g transform="scale(6.960556844547564) translate(10, 10)">
				<defs id="SvgjsDefs1090"><linearGradient id="SvgjsLinearGradient1101"><stop id="SvgjsStop1102" stop-color="#8f5e25" offset="0"></stop><stop id="SvgjsStop1103" stop-color="#fbf4a1" offset="0.5"></stop><stop id="SvgjsStop1104" stop-color="#8f5e25" offset="1"></stop></linearGradient><linearGradient id="SvgjsLinearGradient1105"><stop id="SvgjsStop1106" stop-color="#7d141d" offset="0"></stop><stop id="SvgjsStop1107" stop-color="#ff1e27" offset="1"></stop></linearGradient><linearGradient id="SvgjsLinearGradient1108"><stop id="SvgjsStop1109" stop-color="#7d141d" offset="0"></stop><stop id="SvgjsStop1110" stop-color="#ff1e27" offset="1"></stop></linearGradient></defs><g id="SvgjsG1091" featureKey="rootContainer" transform="matrix(1,0,0,1,0,0)" fill="url(#SvgjsLinearGradient1101)"><rect y="0" height="1" width="1" opacity="0"></rect><rect y="111" width="431" height="5"></rect></g><g id="SvgjsG1092" featureKey="sloganFeature-0" transform="matrix(0.36680938479394953,0,0,0.36680938479394953,155.6563228122378,92.00961473101967)" fill="url(#SvgjsLinearGradient1105)"><path d="M3.58 6.92 l2.2 8.28 l2.26 -8.28 c0.04 -0.06 0.08 -0.12 0.16 -0.12 l2.28 0 c0.12 0 0.2 0.1 0.16 0.22 l-3.46 12.86 c-0.04 0.08 -0.08 0.12 -0.16 0.12 l-2.48 0 c-0.06 0 -0.12 -0.04 -0.14 -0.12 l-3.46 -12.86 c-0.02 -0.12 0.06 -0.22 0.18 -0.22 l2.3 0 c0.08 0 0.12 0.06 0.16 0.12 z M5.74 18.62 l-3.34 -10.66 c-0.06 -0.16 -0.28 -0.06 -0.22 0.06 l3.32 10.68 c0.08 0.3 0.4 0.32 0.5 0 l3.2 -10.68 c0.04 -0.12 -0.18 -0.2 -0.22 -0.06 z M20.756 6.619999999999999 c1.72 0 2.92 0.38 3.68 1.2 c0.6 0.66 0.88 1.6 0.88 2.94 l0 5.26 c0 1.38 -0.28 2.34 -0.88 2.98 c-0.78 0.8 -1.96 1.2 -3.68 1.2 c-1.78 0 -2.94 -0.4 -3.7 -1.2 c-0.58 -0.64 -0.9 -1.6 -0.9 -2.98 l0 -5.26 c0 -1.34 0.32 -2.28 0.9 -2.96 c0.78 -0.8 1.96 -1.18 3.7 -1.18 z M22.656 15.42 l0 -4 c0 -1.76 -0.94 -2.12 -1.8 -2.12 l-0.24 0 c-1.28 0 -1.78 0.82 -1.78 2.12 l0 4 c0 1.76 0.94 2.14 1.78 2.14 l0.24 0 c1.28 0 1.78 -0.86 1.8 -2.14 z M17.416 10.9 l0 4.96 c0 0.94 0.24 1.72 0.8 2.3 c0.52 0.52 1.32 0.8 2.3 0.8 l0.52 0 c1.88 0 3.1 -1.2 3.1 -3.1 l0 -4.96 c0 -2.04 -1.08 -3.14 -3.1 -3.14 l-0.52 0 c-2.04 0 -3.1 1.1 -3.1 3.14 z M21.036 18.7 l-0.52 0 c-0.94 0 -1.64 -0.24 -2.14 -0.74 s-0.76 -1.2 -0.76 -2.1 l0 -4.96 c0 -1.9 1.02 -2.9 2.9 -2.9 l0.52 0 c1.9 0 2.84 0.98 2.84 2.9 l0 4.96 c0 0.84 -0.26 1.6 -0.8 2.12 c-0.52 0.44 -1.22 0.72 -2.04 0.72 z M36.312000000000005 11.9 c1.52 0.72 3.5 1.86 3.5 3.92 c0 0.6 -0.1 1.76 -0.76 2.74 c-0.74 1.1 -1.9 1.64 -3.5 1.64 c-1.7 0 -3.68 -0.82 -4.3 -2.68 c-0.02 -0.06 0 -0.12 0.06 -0.16 l1.84 -1.58 c0.08 -0.06 0.2 -0.06 0.26 0.04 c0.04 0.1 0.12 0.26 0.22 0.46 c0.3 0.62 1.02 1.24 1.82 1.24 c0.62 0 1.46 -0.34 1.46 -1.3 c0 -0.92 -1.26 -1.44 -2.04 -1.74 c-0.9 -0.36 -1.82 -0.82 -2.6 -1.5 c-0.82 -0.76 -1.22 -1.6 -1.22 -2.6 c0 -2.5 2.3 -3.76 4.48 -3.76 c1.72 0 3 0.9 3.84 2.68 c0.04 0.08 0 0.18 -0.06 0.22 l-1.78 1.24 c-0.08 0.04 -0.12 0.04 -0.2 -0.06 c-0.68 -0.98 -1.28 -1.44 -2.08 -1.44 c-0.42 0 -1.4 0.16 -1.4 0.9 c0 0.9 1.66 1.36 2.46 1.74 z M32.672000000000004 17.42 c0.5 1 1.88 1.58 3 1.58 c1.46 0 2.64 -1 2.8 -2.52 c0.2 -1.86 -1.26 -2.66 -2.7 -3.38 l-0.64 -0.28 c-1.48 -0.66 -2.56 -1.16 -2.56 -2.54 c0 -1.52 1.4 -2.22 2.78 -2.22 c1.26 0 1.92 0.74 2.26 1.2 c0.12 0.16 0.32 0.02 0.2 -0.14 c-0.34 -0.42 -1.06 -1.3 -2.46 -1.3 c-1.58 0 -3.02 0.78 -3.02 2.46 c0 1.5 1.2 2.08 2.72 2.78 l0.62 0.3 c1.98 0.94 2.7 1.82 2.54 3.1 c-0.3 2.04 -1.86 2.3 -2.54 2.3 c-1.5 0 -2.5 -0.9 -2.8 -1.46 c-0.1 -0.1 -0.24 0 -0.2 0.12 z M63.784000000000006 14.780000000000001 c-0.28 0.58 -0.68 1.02 -1.24 1.28 l1.68 3.7 c0.06 0.12 -0.02 0.24 -0.14 0.24 l-2.46 0 c-0.08 0 -0.12 -0.04 -0.14 -0.1 l-1.56 -3.4 l-1.02 0 l0 3.32 c0 0.1 -0.08 0.18 -0.18 0.18 l-2.3 0 c-0.08 0 -0.14 -0.08 -0.14 -0.18 l0 -12.84 c0 -0.1 0.06 -0.18 0.14 -0.18 l4.16 0 c2.22 0 3.56 1.26 3.56 3.6 l0 2.52 c0 0.7 -0.12 1.36 -0.36 1.86 z M61.524 12.3 l0 -1.3 c0 -1.4 -0.52 -1.54 -2.04 -1.54 l-0.58 0 l0 4.42 l0.58 0 c1.26 0 2 -0.02 2.04 -1.58 z M57.744 18.78 l0 -3.42 l2.88 0 l1.68 3.46 c0.04 0.1 0.28 0.06 0.22 -0.12 l-1.68 -3.4 c1.56 -0.22 2.1 -1.04 2.1 -2.52 l0 -2.5 c0 -2.2 -2 -2.38 -2.62 -2.38 l-2.7 0 c-0.04 0 -0.12 0.06 -0.12 0.12 l0 10.76 c0 0.14 0.24 0.14 0.24 0 z M62.70400000000001 10.28 l0 2.5 c0 2.04 -1.3 2.32 -2.56 2.32 l-2.4 0 l0 -6.94 l2.58 0 c2.16 0 2.38 1.46 2.38 2.12 z M70.84000000000002 20 c-0.1 0 -0.16 -0.08 -0.16 -0.18 l0 -12.84 c0 -0.1 0.06 -0.18 0.16 -0.18 l6.8 0 c0.1 0 0.18 0.08 0.18 0.18 l0 2.14 c0 0.1 -0.08 0.18 -0.18 0.18 l-4.32 0 l0 2.72 l3.36 0 c0.1 0 0.16 0.08 0.16 0.18 l0 2.18 c0 0.1 -0.06 0.18 -0.16 0.18 l-3.36 0 l0 2.94 l4.32 0 c0.1 0 0.18 0.08 0.18 0.18 l0 2.14 c0 0.1 -0.08 0.18 -0.18 0.18 l-6.8 0 z M71.84000000000002 8.06 l0 10.64 c0 0.12 0.08 0.16 0.16 0.16 l4.6 0 c0.18 0 0.14 -0.24 0 -0.24 l-4.5 0 l0 -5.22 l3.68 0 c0.12 0 0.12 -0.28 0 -0.28 l-3.68 0 l0 -4.96 l4.5 0 c0.14 0 0.18 -0.26 0 -0.26 l-4.6 0 c-0.08 0 -0.16 0.06 -0.16 0.16 z M71.46000000000001 5 c-0.16 0 -0.26 -0.16 -0.14 -0.3 l1.76 -1.92 c0.04 -0.04 0.08 -0.08 0.12 -0.08 l2.12 0 c0.06 0 0.1 0.04 0.16 0.1 l1.32 1.94 c0.06 0.06 0.02 0.26 -0.14 0.26 l-1.6 0 c-0.08 0 -0.14 -0.04 -0.16 -0.1 l-0.72 -1.2 l-1.06 1.24 c-0.02 0.04 -0.06 0.06 -0.12 0.06 l-1.54 0 z M72.58000000000001 4.380000000000001 c-0.1 0.12 0.04 0.28 0.18 0.12 l0.54 -0.76 c0.4 -0.6 1.38 -0.68 1.8 0.02 l0.46 0.74 c0.06 0.14 0.32 0.04 0.22 -0.12 l-0.42 -0.72 c-0.56 -0.92 -1.78 -0.78 -2.26 -0.06 z M85.89600000000002 6.92 l2.2 8.28 l2.26 -8.28 c0.04 -0.06 0.08 -0.12 0.16 -0.12 l2.28 0 c0.12 0 0.2 0.1 0.16 0.22 l-3.46 12.86 c-0.04 0.08 -0.08 0.12 -0.16 0.12 l-2.48 0 c-0.06 0 -0.12 -0.04 -0.14 -0.12 l-3.46 -12.86 c-0.02 -0.12 0.06 -0.22 0.18 -0.22 l2.3 0 c0.08 0 0.12 0.06 0.16 0.12 z M88.05600000000001 18.62 l-3.34 -10.66 c-0.06 -0.16 -0.28 -0.06 -0.22 0.06 l3.32 10.68 c0.08 0.3 0.4 0.32 0.5 0 l3.2 -10.68 c0.04 -0.12 -0.18 -0.2 -0.22 -0.06 z M98.89200000000002 20 c-0.1 0 -0.16 -0.08 -0.16 -0.18 l0 -12.84 c0 -0.1 0.06 -0.18 0.16 -0.18 l6.8 0 c0.1 0 0.18 0.08 0.18 0.18 l0 2.14 c0 0.1 -0.08 0.18 -0.18 0.18 l-4.32 0 l0 2.72 l3.36 0 c0.1 0 0.16 0.08 0.16 0.18 l0 2.18 c0 0.1 -0.06 0.18 -0.16 0.18 l-3.36 0 l0 2.94 l4.32 0 c0.1 0 0.18 0.08 0.18 0.18 l0 2.14 c0 0.1 -0.08 0.18 -0.18 0.18 l-6.8 0 z M99.89200000000002 8.06 l0 10.64 c0 0.12 0.08 0.16 0.16 0.16 l4.6 0 c0.18 0 0.14 -0.24 0 -0.24 l-4.5 0 l0 -5.22 l3.68 0 c0.12 0 0.12 -0.28 0 -0.28 l-3.68 0 l0 -4.96 l4.5 0 c0.14 0 0.18 -0.26 0 -0.26 l-4.6 0 c-0.08 0 -0.16 0.06 -0.16 0.16 z M116.74800000000002 11.9 c1.52 0.72 3.5 1.86 3.5 3.92 c0 0.6 -0.1 1.76 -0.76 2.74 c-0.74 1.1 -1.9 1.64 -3.5 1.64 c-1.7 0 -3.68 -0.82 -4.3 -2.68 c-0.02 -0.06 0 -0.12 0.06 -0.16 l1.84 -1.58 c0.08 -0.06 0.2 -0.06 0.26 0.04 c0.04 0.1 0.12 0.26 0.22 0.46 c0.3 0.62 1.02 1.24 1.82 1.24 c0.62 0 1.46 -0.34 1.46 -1.3 c0 -0.92 -1.26 -1.44 -2.04 -1.74 c-0.9 -0.36 -1.82 -0.82 -2.6 -1.5 c-0.82 -0.76 -1.22 -1.6 -1.22 -2.6 c0 -2.5 2.3 -3.76 4.48 -3.76 c1.72 0 3 0.9 3.84 2.68 c0.04 0.08 0 0.18 -0.06 0.22 l-1.78 1.24 c-0.08 0.04 -0.12 0.04 -0.2 -0.06 c-0.68 -0.98 -1.28 -1.44 -2.08 -1.44 c-0.42 0 -1.4 0.16 -1.4 0.9 c0 0.9 1.66 1.36 2.46 1.74 z M113.10800000000002 17.42 c0.5 1 1.88 1.58 3 1.58 c1.46 0 2.64 -1 2.8 -2.52 c0.2 -1.86 -1.26 -2.66 -2.7 -3.38 l-0.64 -0.28 c-1.48 -0.66 -2.56 -1.16 -2.56 -2.54 c0 -1.52 1.4 -2.22 2.78 -2.22 c1.26 0 1.92 0.74 2.26 1.2 c0.12 0.16 0.32 0.02 0.2 -0.14 c-0.34 -0.42 -1.06 -1.3 -2.46 -1.3 c-1.58 0 -3.02 0.78 -3.02 2.46 c0 1.5 1.2 2.08 2.72 2.78 l0.62 0.3 c1.98 0.94 2.7 1.82 2.54 3.1 c-0.3 2.04 -1.86 2.3 -2.54 2.3 c-1.5 0 -2.5 -0.9 -2.8 -1.46 c-0.1 -0.1 -0.24 0 -0.2 0.12 z M142.98000000000002 15.379999999999999 l0 -0.62 c0 -0.1 0.08 -0.18 0.18 -0.18 l2.28 0 c0.1 0 0.18 0.08 0.18 0.18 l0 1.26 c0 2.94 -1.58 4.18 -4.56 4.18 c-2.78 0 -4.6 -1.1 -4.6 -4.18 l0 -5.26 c0 -2.96 1.62 -4.14 4.6 -4.14 c2.82 0 4.56 1.08 4.56 4.14 l0 0.42 c0 0.1 -0.08 0.18 -0.18 0.18 l-2.3 0 c-0.1 0 -0.18 -0.08 -0.18 -0.18 l0 -0.32 c0 -1.1 -0.82 -1.56 -1.8 -1.56 l-0.24 0 c-0.66 0 -1.1 0.18 -1.4 0.58 c-0.28 0.38 -0.38 0.88 -0.38 1.54 l0 3.96 c0 1.74 0.98 2.12 1.78 2.12 l0.24 0 c1.26 0 1.78 -0.84 1.82 -2.12 z M141.02000000000004 7.859999999999999 c-2.14 0 -3.38 0.76 -3.38 3.2 l0 4.82 c0 2.22 1.14 3.04 3.38 3.04 c2.1 0 3.36 -0.76 3.36 -3.06 c0 -0.16 -0.24 -0.16 -0.24 0 c0 2.02 -1.1 2.84 -3.12 2.84 c-1.96 0 -3.16 -0.68 -3.16 -2.82 l0 -4.82 c0 -2.08 0.98 -2.98 3.16 -2.98 c2.84 0 2.94 1.8 2.94 2 c0 0.18 0.28 0.2 0.28 0 c0 -1.66 -1.68 -2.22 -3.22 -2.22 z M156.33600000000004 6.619999999999999 c1.72 0 2.92 0.38 3.68 1.2 c0.6 0.66 0.88 1.6 0.88 2.94 l0 5.26 c0 1.38 -0.28 2.34 -0.88 2.98 c-0.78 0.8 -1.96 1.2 -3.68 1.2 c-1.78 0 -2.94 -0.4 -3.7 -1.2 c-0.58 -0.64 -0.9 -1.6 -0.9 -2.98 l0 -5.26 c0 -1.34 0.32 -2.28 0.9 -2.96 c0.78 -0.8 1.96 -1.18 3.7 -1.18 z M158.23600000000005 15.42 l0 -4 c0 -1.76 -0.94 -2.12 -1.8 -2.12 l-0.24 0 c-1.28 0 -1.78 0.82 -1.78 2.12 l0 4 c0 1.76 0.94 2.14 1.78 2.14 l0.24 0 c1.28 0 1.78 -0.86 1.8 -2.14 z M152.99600000000004 10.9 l0 4.96 c0 0.94 0.24 1.72 0.8 2.3 c0.52 0.52 1.32 0.8 2.3 0.8 l0.52 0 c1.88 0 3.1 -1.2 3.1 -3.1 l0 -4.96 c0 -2.04 -1.08 -3.14 -3.1 -3.14 l-0.52 0 c-2.04 0 -3.1 1.1 -3.1 3.14 z M156.61600000000004 18.7 l-0.52 0 c-0.94 0 -1.64 -0.24 -2.14 -0.74 s-0.76 -1.2 -0.76 -2.1 l0 -4.96 c0 -1.9 1.02 -2.9 2.9 -2.9 l0.52 0 c1.9 0 2.84 0.98 2.84 2.9 l0 4.96 c0 0.84 -0.26 1.6 -0.8 2.12 c-0.52 0.44 -1.22 0.72 -2.04 0.72 z M178.43200000000004 6.800000000000001 c0.1 0 0.18 0.08 0.18 0.18 l0 12.84 c0 0.1 -0.08 0.18 -0.18 0.18 l-2.18 0 c-0.06 0 -0.16 -0.08 -0.16 -0.18 l0 -7.4 l-2.2 7.46 c-0.04 0.08 -0.08 0.12 -0.16 0.12 l-1.58 0 c-0.06 0 -0.14 -0.04 -0.16 -0.12 l-2.06 -7.6 l0 7.54 c0 0.1 -0.08 0.18 -0.18 0.18 l-2.22 0 c-0.08 0 -0.14 -0.08 -0.14 -0.18 l0 -12.84 c0 -0.1 0.06 -0.18 0.14 -0.18 l2.8 0 c0.08 0 0.16 0.06 0.18 0.12 l2.42 8.1 l2.66 -8.1 c0 -0.06 0.06 -0.12 0.14 -0.12 l2.7 0 z M177.19200000000006 18.78 c0 0.14 0.26 0.18 0.26 0 l0 -10.78 c0 -0.04 -0.06 -0.1 -0.12 -0.1 l-0.94 0 c-0.08 0 -0.1 0.06 -0.14 0.1 l-3.32 9.9 l-3.3 -9.92 c0 -0.06 -0.04 -0.08 -0.1 -0.08 l-0.98 0 c-0.06 0 -0.12 0.06 -0.12 0.12 l0 10.76 c0 0.14 0.26 0.18 0.26 0 l0 -10.62 l0.74 0 l3.38 10.16 c0.08 0.14 0.14 0.1 0.24 0 l3.4 -10.16 l0.74 0 l0 10.62 z M196.40800000000004 6.800000000000001 c0.1 0 0.18 0.08 0.18 0.18 l0 12.84 c0 0.1 -0.08 0.18 -0.18 0.18 l-2.18 0 c-0.06 0 -0.16 -0.08 -0.16 -0.18 l0 -7.4 l-2.2 7.46 c-0.04 0.08 -0.08 0.12 -0.16 0.12 l-1.58 0 c-0.06 0 -0.14 -0.04 -0.16 -0.12 l-2.06 -7.6 l0 7.54 c0 0.1 -0.08 0.18 -0.18 0.18 l-2.22 0 c-0.08 0 -0.14 -0.08 -0.14 -0.18 l0 -12.84 c0 -0.1 0.06 -0.18 0.14 -0.18 l2.8 0 c0.08 0 0.16 0.06 0.18 0.12 l2.42 8.1 l2.66 -8.1 c0 -0.06 0.06 -0.12 0.14 -0.12 l2.7 0 z M195.16800000000006 18.78 c0 0.14 0.26 0.18 0.26 0 l0 -10.78 c0 -0.04 -0.06 -0.1 -0.12 -0.1 l-0.94 0 c-0.08 0 -0.1 0.06 -0.14 0.1 l-3.32 9.9 l-3.3 -9.92 c0 -0.06 -0.04 -0.08 -0.1 -0.08 l-0.98 0 c-0.06 0 -0.12 0.06 -0.12 0.12 l0 10.76 c0 0.14 0.26 0.18 0.26 0 l0 -10.62 l0.74 0 l3.38 10.16 c0.08 0.14 0.14 0.1 0.24 0 l3.4 -10.16 l0.74 0 l0 10.62 z M203.50400000000005 20 c-0.1 0 -0.16 -0.08 -0.16 -0.18 l0 -12.84 c0 -0.1 0.06 -0.18 0.16 -0.18 l6.8 0 c0.1 0 0.18 0.08 0.18 0.18 l0 2.14 c0 0.1 -0.08 0.18 -0.18 0.18 l-4.32 0 l0 2.72 l3.36 0 c0.1 0 0.16 0.08 0.16 0.18 l0 2.18 c0 0.1 -0.06 0.18 -0.16 0.18 l-3.36 0 l0 2.94 l4.32 0 c0.1 0 0.18 0.08 0.18 0.18 l0 2.14 c0 0.1 -0.08 0.18 -0.18 0.18 l-6.8 0 z M204.50400000000005 8.06 l0 10.64 c0 0.12 0.08 0.16 0.16 0.16 l4.6 0 c0.18 0 0.14 -0.24 0 -0.24 l-4.5 0 l0 -5.22 l3.68 0 c0.12 0 0.12 -0.28 0 -0.28 l-3.68 0 l0 -4.96 l4.5 0 c0.14 0 0.18 -0.26 0 -0.26 l-4.6 0 c-0.08 0 -0.16 0.06 -0.16 0.16 z M222.32000000000005 6.98 c0 -0.1 0.08 -0.18 0.18 -0.18 l2.3 0 c0.1 0 0.18 0.08 0.18 0.18 l0 12.84 c0 0.1 -0.08 0.18 -0.18 0.18 l-2.22 0 c-0.08 0 -0.16 -0.04 -0.18 -0.1 l-2.92 -6.58 l0 6.5 c0 0.1 -0.08 0.18 -0.18 0.18 l-2.28 0 c-0.1 0 -0.16 -0.08 -0.16 -0.18 l0 -12.84 c0 -0.1 0.06 -0.18 0.16 -0.18 l2.36 0 c0.08 0 0.12 0.06 0.14 0.1 l2.8 6.46 l0 -6.38 z M223.76000000000005 18.8 l0 -10.8 c0 -0.14 -0.26 -0.18 -0.26 0 l0 10.28 l-5.22 -10.32 c-0.06 -0.08 -0.22 -0.08 -0.22 0.04 l0 10.78 c0 0.18 0.24 0.18 0.24 0 l0 -10.26 l5.2 10.3 c0.08 0.14 0.26 0.1 0.26 -0.02 z M237.99600000000004 15.379999999999999 l0 -0.62 c0 -0.1 0.08 -0.18 0.18 -0.18 l2.28 0 c0.1 0 0.18 0.08 0.18 0.18 l0 1.26 c0 2.94 -1.58 4.18 -4.56 4.18 c-2.78 0 -4.6 -1.1 -4.6 -4.18 l0 -5.26 c0 -2.96 1.62 -4.14 4.6 -4.14 c2.82 0 4.56 1.08 4.56 4.14 l0 0.42 c0 0.1 -0.08 0.18 -0.18 0.18 l-2.3 0 c-0.1 0 -0.18 -0.08 -0.18 -0.18 l0 -0.32 c0 -1.1 -0.82 -1.56 -1.8 -1.56 l-0.24 0 c-0.66 0 -1.1 0.18 -1.4 0.58 c-0.28 0.38 -0.38 0.88 -0.38 1.54 l0 3.96 c0 1.74 0.98 2.12 1.78 2.12 l0.24 0 c1.26 0 1.78 -0.84 1.82 -2.12 z M236.03600000000006 7.859999999999999 c-2.14 0 -3.38 0.76 -3.38 3.2 l0 4.82 c0 2.22 1.14 3.04 3.38 3.04 c2.1 0 3.36 -0.76 3.36 -3.06 c0 -0.16 -0.24 -0.16 -0.24 0 c0 2.02 -1.1 2.84 -3.12 2.84 c-1.96 0 -3.16 -0.68 -3.16 -2.82 l0 -4.82 c0 -2.08 0.98 -2.98 3.16 -2.98 c2.84 0 2.94 1.8 2.94 2 c0 0.18 0.28 0.2 0.28 0 c0 -1.66 -1.68 -2.22 -3.22 -2.22 z M247.17200000000005 20 c-0.1 0 -0.16 -0.08 -0.16 -0.18 l0 -12.84 c0 -0.1 0.06 -0.18 0.16 -0.18 l6.8 0 c0.1 0 0.18 0.08 0.18 0.18 l0 2.14 c0 0.1 -0.08 0.18 -0.18 0.18 l-4.32 0 l0 2.72 l3.36 0 c0.1 0 0.16 0.08 0.16 0.18 l0 2.18 c0 0.1 -0.06 0.18 -0.16 0.18 l-3.36 0 l0 2.94 l4.32 0 c0.1 0 0.18 0.08 0.18 0.18 l0 2.14 c0 0.1 -0.08 0.18 -0.18 0.18 l-6.8 0 z M248.17200000000005 8.06 l0 10.64 c0 0.12 0.08 0.16 0.16 0.16 l4.6 0 c0.18 0 0.14 -0.24 0 -0.24 l-4.5 0 l0 -5.22 l3.68 0 c0.12 0 0.12 -0.28 0 -0.28 l-3.68 0 l0 -4.96 l4.5 0 c0.14 0 0.18 -0.26 0 -0.26 l-4.6 0 c-0.08 0 -0.16 0.06 -0.16 0.16 z M265.98800000000006 6.98 c0 -0.1 0.08 -0.18 0.18 -0.18 l2.3 0 c0.1 0 0.18 0.08 0.18 0.18 l0 12.84 c0 0.1 -0.08 0.18 -0.18 0.18 l-2.22 0 c-0.08 0 -0.16 -0.04 -0.18 -0.1 l-2.92 -6.58 l0 6.5 c0 0.1 -0.08 0.18 -0.18 0.18 l-2.28 0 c-0.1 0 -0.16 -0.08 -0.16 -0.18 l0 -12.84 c0 -0.1 0.06 -0.18 0.16 -0.18 l2.36 0 c0.08 0 0.12 0.06 0.14 0.1 l2.8 6.46 l0 -6.38 z M267.42800000000005 18.8 l0 -10.8 c0 -0.14 -0.26 -0.18 -0.26 0 l0 10.28 l-5.22 -10.32 c-0.06 -0.08 -0.22 -0.08 -0.22 0.04 l0 10.78 c0 0.18 0.24 0.18 0.24 0 l0 -10.26 l5.2 10.3 c0.08 0.14 0.26 0.1 0.26 -0.02 z M277.46400000000006 9.3 l-2.84 0 c-0.1 0 -0.18 -0.08 -0.18 -0.18 l0 -2.14 c0 -0.1 0.08 -0.18 0.18 -0.18 l8.34 0 c0.1 0 0.18 0.08 0.18 0.18 l0 2.14 c0 0.1 -0.08 0.18 -0.18 0.18 l-2.84 0 l0 10.52 c0 0.1 -0.08 0.18 -0.18 0.18 l-2.3 0 c-0.1 0 -0.18 -0.08 -0.18 -0.18 l0 -10.52 z M281.7440000000001 7.9 l-6.04 0 c-0.14 0 -0.14 0.26 0 0.26 l2.96 0 l0 10.6 c0 0.14 0.26 0.14 0.26 0 l0 -10.6 l2.82 0 c0.2 0 0.18 -0.26 0 -0.26 z M299.5760000000001 20 c-0.1 0 -0.16 -0.08 -0.16 -0.18 l0 -12.84 c0 -0.1 0.06 -0.18 0.16 -0.18 l2.28 0 c0.1 0 0.18 0.08 0.18 0.18 l0 12.84 c0 0.1 -0.08 0.18 -0.18 0.18 l-2.28 0 z M300.61600000000004 8 l0 10.78 c0 0.18 0.22 0.18 0.22 0 l0 -10.78 c0 -0.14 -0.22 -0.14 -0.22 0 z M314.97200000000004 15.379999999999999 l0 -0.62 c0 -0.1 0.08 -0.18 0.18 -0.18 l2.28 0 c0.1 0 0.18 0.08 0.18 0.18 l0 1.26 c0 2.94 -1.58 4.18 -4.56 4.18 c-2.78 0 -4.6 -1.1 -4.6 -4.18 l0 -5.26 c0 -2.96 1.62 -4.14 4.6 -4.14 c2.82 0 4.56 1.08 4.56 4.14 l0 0.42 c0 0.1 -0.08 0.18 -0.18 0.18 l-2.3 0 c-0.1 0 -0.18 -0.08 -0.18 -0.18 l0 -0.32 c0 -1.1 -0.82 -1.56 -1.8 -1.56 l-0.24 0 c-0.66 0 -1.1 0.18 -1.4 0.58 c-0.28 0.38 -0.38 0.88 -0.38 1.54 l0 3.96 c0 1.74 0.98 2.12 1.78 2.12 l0.24 0 c1.26 0 1.78 -0.84 1.82 -2.12 z M313.01200000000006 7.859999999999999 c-2.14 0 -3.38 0.76 -3.38 3.2 l0 4.82 c0 2.22 1.14 3.04 3.38 3.04 c2.1 0 3.36 -0.76 3.36 -3.06 c0 -0.16 -0.24 -0.16 -0.24 0 c0 2.02 -1.1 2.84 -3.12 2.84 c-1.96 0 -3.16 -0.68 -3.16 -2.82 l0 -4.82 c0 -2.08 0.98 -2.98 3.16 -2.98 c2.84 0 2.94 1.8 2.94 2 c0 0.18 0.28 0.2 0.28 0 c0 -1.66 -1.68 -2.22 -3.22 -2.22 z M324.1480000000001 20 c-0.1 0 -0.16 -0.08 -0.16 -0.18 l0 -12.84 c0 -0.1 0.06 -0.18 0.16 -0.18 l2.28 0 c0.1 0 0.18 0.08 0.18 0.18 l0 12.84 c0 0.1 -0.08 0.18 -0.18 0.18 l-2.28 0 z M325.18800000000005 8 l0 10.78 c0 0.18 0.22 0.18 0.22 0 l0 -10.78 c0 -0.14 -0.22 -0.14 -0.22 0 z"></path></g><g id="SvgjsG1093" featureKey="nameLeftFeature-0" transform="matrix(0.918163380944847,0,0,0.918163380944847,-0.9548898811574874,21.761682178643664)" fill="#0d0d0c"><path d="M9.08 28.32 l-1.04 0 c-1.08 2.92 -1.68 6.76 -1.96 9.44 c-0.16 1.48 -1 2.36 -2.44 2.36 c-2.16 0 -2.6 -1.28 -2.6 -3.2 c0 -1.24 0.68 -8.44 5.92 -18.32 c2.28 -4.32 3.56 -6.36 6.36 -6.36 c2.32 0 3.68 2.04 5.96 6.36 c5.24 9.88 6.32 17.08 6.32 18.32 c0 2.08 -1 3.2 -2.4 3.2 c-2 0 -2.48 -1.16 -2.88 -3.32 c-1.04 -5.76 -6.76 -8.48 -11.24 -8.48 z M9.24 24.32 l0.52 0 c1.96 0 5.4 0.56 8.04 2.72 l0.08 -0.08 c-1.2 -3.44 -2.72 -6.8 -4.68 -9.92 c-1.6 2.4 -2.92 4.8 -3.96 7.28 z M30.392999999999997 36.56 l0 -21.48 c0 -1.52 0.84 -2.72 2.52 -2.72 s2.52 1.2 2.52 2.72 l0 20.12 l7.72 0 c1.44 0 2.6 0.76 2.6 2.4 s-1.16 2.4 -2.6 2.4 l-9.28 0 c-2.64 0 -3.48 -1.36 -3.48 -3.44 z M53.666000000000004 20.88 l9.28 0 l0 -5.8 c0 -1.52 0.8 -2.72 2.52 -2.72 s2.52 1.2 2.52 2.72 l0 22.32 c0 1.52 -0.8 2.72 -2.52 2.72 s-2.52 -1.2 -2.52 -2.72 l0 -12.2 l-9.28 0 l0 12.2 c0 1.52 -0.8 2.72 -2.52 2.72 s-2.52 -1.2 -2.52 -2.72 l0 -22.32 c0 -1.52 0.8 -2.72 2.52 -2.72 s2.52 1.2 2.52 2.72 l0 5.8 z M80.459 28.32 l-1.04 0 c-1.08 2.92 -1.68 6.76 -1.96 9.44 c-0.16 1.48 -1 2.36 -2.44 2.36 c-2.16 0 -2.6 -1.28 -2.6 -3.2 c0 -1.24 0.68 -8.44 5.92 -18.32 c2.28 -4.32 3.56 -6.36 6.36 -6.36 c2.32 0 3.68 2.04 5.96 6.36 c5.24 9.88 6.32 17.08 6.32 18.32 c0 2.08 -1 3.2 -2.4 3.2 c-2 0 -2.48 -1.16 -2.88 -3.32 c-1.04 -5.76 -6.76 -8.48 -11.24 -8.48 z M80.619 24.32 l0.52 0 c1.96 0 5.4 0.56 8.04 2.72 l0.08 -0.08 c-1.2 -3.44 -2.72 -6.8 -4.68 -9.92 c-1.6 2.4 -2.92 4.8 -3.96 7.28 z M113.332 22.44 c1.64 -2 2.6 -4.56 3.96 -7.88 c0.64 -1.56 1.6 -2.2 3.2 -2.2 c3.08 0 3.2 2.36 3.84 6.2 c0.76 4.52 1.44 12.36 1.44 16.92 c0 2.8 -0.2 4.64 -2.48 4.64 c-2.24 0 -2.56 -1.52 -2.56 -3.4 l0 -6.32 c0 -3.48 -0.4 -7.08 -0.96 -10.76 l-0.08 0 c-0.64 2.04 -3.56 8.72 -6.36 8.72 s-5.72 -6.68 -6.36 -8.72 l-0.08 0 c-0.56 3.68 -0.96 7.28 -0.96 10.76 l0 6.32 c0 1.88 -0.32 3.4 -2.56 3.4 c-2.28 0 -2.48 -1.84 -2.48 -4.64 c0 -4.56 0.68 -12.4 1.44 -16.92 c0.64 -3.84 0.76 -6.2 3.84 -6.2 c1.6 0 2.56 0.64 3.2 2.2 c1.36 3.32 2.32 5.88 3.96 7.88 z M133.325 12.48 l11.2 0 c4.56 0 5.88 2.64 5.88 5.56 c0 2.72 -0.96 4.4 -3.04 6.04 c2.48 1.88 4.44 4.84 4.44 8.04 c0 4.28 -3.28 7.88 -7.76 7.88 l-9.44 0 c-2.64 0 -3.48 -0.8 -3.48 -2.72 l0 -22.08 c0 -1.52 0.84 -2.72 2.2 -2.72 z M136.165 24.560000000000002 l0 10.88 l4.92 0 c3.36 0 5.44 -0.8 5.44 -3.48 c0 -4.88 -6.32 -7.08 -10.36 -7.4 z M136.165 16.8 l0 3.76 c2.24 0 5.08 0.56 7.16 1.44 c1.28 -0.8 2.04 -1.76 2.04 -3.08 c0 -1.48 -0.92 -2.12 -3.56 -2.12 l-5.64 0 z M161.438 25.16 l0 12.28 c0 1.48 -0.8 2.68 -2.52 2.68 s-2.52 -1.2 -2.52 -2.68 l0 -22.28 c0 -1.48 0.8 -2.68 2.52 -2.68 l8.56 0 c6.08 0 8.4 1.76 8.4 5.68 c0 2.72 -1.52 4.88 -3.64 6.28 c3.44 3.12 5.28 8.24 5.28 12.08 c0 1.84 -0.36 3.6 -2.36 3.6 c-2.2 0 -2.64 -1.48 -2.68 -3.36 c-0.12 -6.04 -3.4 -11.6 -11.04 -11.6 z M161.438 17.04 l0 3.8 c2.2 0 3.24 0.24 4.24 0.44 l2.44 0.64 c1.08 0 2.72 -1.8 2.72 -3 c0 -1.28 -1 -1.88 -2.72 -1.88 l-6.68 0 z M188.231 28.32 l-1.04 0 c-1.08 2.92 -1.68 6.76 -1.96 9.44 c-0.16 1.48 -1 2.36 -2.44 2.36 c-2.16 0 -2.6 -1.28 -2.6 -3.2 c0 -1.24 0.68 -8.44 5.92 -18.32 c2.28 -4.32 3.56 -6.36 6.36 -6.36 c2.32 0 3.68 2.04 5.96 6.36 c5.24 9.88 6.32 17.08 6.32 18.32 c0 2.08 -1 3.2 -2.4 3.2 c-2 0 -2.48 -1.16 -2.88 -3.32 c-1.04 -5.76 -6.76 -8.48 -11.24 -8.48 z M188.391 24.32 l0.52 0 c1.96 0 5.4 0.56 8.04 2.72 l0.08 -0.08 c-1.2 -3.44 -2.72 -6.8 -4.68 -9.92 c-1.6 2.4 -2.92 4.8 -3.96 7.28 z"></path></g><g id="SvgjsG1094" featureKey="inlineSymbolFeature-0" transform="matrix(0.929223943129901,0,0,0.929223943129901,196.8324498624296,1.3687509718099378)" fill="url(#SvgjsLinearGradient1108)"><g xmlns="http://www.w3.org/2000/svg"><path fill="none" d="M27.722,22.228c-1.856,0.951-3.599,2.092-5.193,3.41c1.414-0.594,2.814-1.193,2.944-1.291   C25.606,24.248,26.558,23.248,27.722,22.228z"></path><path d="M48.315,75.162c0.083-0.09,0.166-0.182,0.246-0.299c0.814-1.185,1.48-2.925,1.961-3.257   c0.481-0.333,0.851,0.556,0.813-0.409c-0.035-0.959-0.738-3.365-1.665-3.401c-0.925-0.039-1.85-1.406-2.073-1.851   c-0.222-0.444-1.517-2.998-1.887-2.294l-0.481,2.923c-0.148-0.037-1.74-0.741-1.629-1.11c0.111-0.371,0.026-0.666-0.005-0.815   c-0.032-0.148-1.253-1.307-1.772-0.617c-0.518,0.692-1.109,1.47-1.22,1.32c-0.11-0.147-1.406,0.149-1.48,0.26   c-0.074,0.111-1.776,1.775-1.776,1.775s-2.554,2.073-2.554,2.442c0,0.371,0.074,3.33,1.185,3.812c1.11,0.482,1.961-0.591,3.516,0   c1.555,0.593,4.699,0.443,5.218,0.963c0.511,0.512,1.595,0.877,1.837,0.993c-1.891,0.396-3.849,0.606-5.856,0.606   c-14.305,0-26.185-10.575-28.236-24.318c0.783,0.617,6.527,1.572,6.527,1.953c0,0.404,2.821,4.379,3.764,5.827   c0.943,1.447,1.077-0.338,1.077-0.338s0.268-2.133,0.503-3.076c0.236-0.941,2.154-2.051,3.063-2.354   c0.909-0.303,0.573,0.572,0.909,1.682c0.336,1.111,1.48,0.438,1.48,0.539c0,0.1-0.168,1.65-0.201,1.986   c-0.034,0.336,1.145,1.616,1.245,2.052c0.101,0.438-0.842-0.739-1.783-1.345c-0.943-0.606-0.438,4.104,5.316,5.485   c5.755,1.38,5.688-0.438,4.981-0.472c-0.706-0.033-5.89-0.773-6.26-1.178c-0.37-0.403-0.976-1.11-1.212-1.312   c-0.235-0.204,0-1.28-1.346-2.93c-1.346-1.649,1.818-0.368,2.423-0.57c0.605-0.203,0.875-1.684,0.572-2.087   c-0.303-0.405-1.313-1.279,1.245-1.819c2.559-0.538,3.298-3.533,3.265-3.969c-0.034-0.438-0.438-1.212-0.067-1.65   c0.37-0.438-0.034-0.673-0.673-0.706c-0.64-0.034-0.336-0.371,0.472-0.471c0.807-0.101,1.379,0.1,1.312,0.673   c-0.067,0.573-0.27,2.121,0.808,1.514c1.077-0.605,0.31-2.154,0.31-2.154s-1.05-1.008,1.71-1.816   c2.759-0.808,3.467-6.185,2.458-6.723c-1.009-0.539,1.242-1.556,2.186-1.69c0.942-0.135,2.625-1.347,2.692-0.607   c0.067,0.741,0.382,2.658,0.382,2.658s0.897,2.525,1.974,0.035c1.077-2.49,5.048-5.317,5.52-5.856s3.433-0.942,3.77-1.683   c0.335-0.741-5.856-3.298-6.582-3.029c-0.726,0.269-5.129-0.404-6.476-2.289c-1.347-1.884-3.837-1.077-3.702-0.067   c0.135,1.009-5.722-1.414-6.059-1.481c-0.336-0.067-3.298-2.288-3.23-3.029c0.044-0.49-0.656-1.149-1.696-1.466   c2.41-0.663,4.943-1.024,7.561-1.024c10.395,0,19.507,5.586,24.501,13.911c0.212-0.408,0.446-0.791,0.699-1.145   c-5.269-8.38-14.592-13.966-25.201-13.966c-16.405,0-29.752,13.347-29.752,29.752s13.347,29.752,29.752,29.752   c5.342,0,10.452-1.49,14.791-3.965c-0.339-0.786-0.124-1.125-0.078-1.375C54.032,72.774,50.406,74.582,48.315,75.162z    M27.722,22.228c-1.164,1.02-2.116,2.02-2.249,2.12c-0.13,0.098-1.53,0.697-2.944,1.291C24.123,24.32,25.866,23.179,27.722,22.228z   "></path><path d="M92.463,52.327l-20.085-5.753l0.375-7.572c0-2.13-1.729-7.556-3.857-7.556c-0.801,0-1.544,0.767-2.159,1.838   c-0.237,0.411-0.452,0.869-0.646,1.343c-0.647,1.576-1.047,3.354-1.047,4.375l0.375,7.72l-20.09,5.605   c-0.152,0.045-0.272,0.166-0.311,0.322c-0.039,0.155,0.009,0.319,0.126,0.429l3.877,3.686c0.083,0.075,0.195,0.119,0.307,0.119   c0.016,0,0.036,0,0.057-0.004c0.119-0.014,10.869-1.359,16.432-1.993l0.281,5.747l0.112,2.299l0.335,6.857l-9.384,2.837   c-0.15,0.045-0.265,0.169-0.301,0.323c-0.038,0.15,0.007,0.311,0.117,0.422l2.02,1.971c0.085,0.079,0.197,0.127,0.312,0.127   c0.034,0,0.066-0.01,0.102-0.015c0.058-0.015,5.145-1.201,7.924-1.631c0.387,1.011,0.911,1.875,1.562,1.875   c0.654,0,1.183-0.89,1.566-1.919c2.638,0.394,7.928,1.66,7.985,1.674c0.036,0.006,0.072,0.016,0.104,0.016   c0.118,0,0.232-0.049,0.317-0.134l1.949-1.968c0.108-0.114,0.153-0.272,0.113-0.422c-0.037-0.15-0.15-0.273-0.298-0.319   l-9.393-2.919l0.731-14.88c5.242,0.598,16.449,2.038,16.569,2.052c0.021,0.004,0.042,0.004,0.058,0.004   c0.117,0,0.229-0.045,0.314-0.128l3.74-3.681c0.112-0.111,0.158-0.276,0.118-0.428C92.733,52.492,92.614,52.371,92.463,52.327z"></path></g></g><g id="SvgjsG1095" featureKey="nameRightFeature-0" transform="matrix(0.9142284305877596,0,0,0.9142284305877596,290.86544712891015,21.80984596260845)" fill="#0d0d0c"><path d="M25.553 17.28 l0 20.12 c0 1.52 -0.8 2.72 -2.52 2.72 s-2.52 -1.2 -2.52 -2.72 l0 -20.12 l-4.64 0 c-1.44 0 -2.6 -0.76 -2.6 -2.4 s1.16 -2.4 2.6 -2.4 l14.32 0 c1.44 0 2.6 0.76 2.6 2.4 s-1.16 2.4 -2.6 2.4 l-4.64 0 z M41.426 25.16 l0 12.28 c0 1.48 -0.8 2.68 -2.52 2.68 s-2.52 -1.2 -2.52 -2.68 l0 -22.28 c0 -1.48 0.8 -2.68 2.52 -2.68 l8.56 0 c6.08 0 8.4 1.76 8.4 5.68 c0 2.72 -1.52 4.88 -3.64 6.28 c3.44 3.12 5.28 8.24 5.28 12.08 c0 1.84 -0.36 3.6 -2.36 3.6 c-2.2 0 -2.64 -1.48 -2.68 -3.36 c-0.12 -6.04 -3.4 -11.6 -11.04 -11.6 z M41.426 17.04 l0 3.8 c2.2 0 3.24 0.24 4.24 0.44 l2.44 0.64 c1.08 0 2.72 -1.8 2.72 -3 c0 -1.28 -1 -1.88 -2.72 -1.88 l-6.68 0 z M68.21900000000001 28.32 l-1.04 0 c-1.08 2.92 -1.68 6.76 -1.96 9.44 c-0.16 1.48 -1 2.36 -2.44 2.36 c-2.16 0 -2.6 -1.28 -2.6 -3.2 c0 -1.24 0.68 -8.44 5.92 -18.32 c2.28 -4.32 3.56 -6.36 6.36 -6.36 c2.32 0 3.68 2.04 5.96 6.36 c5.24 9.88 6.32 17.08 6.32 18.32 c0 2.08 -1 3.2 -2.4 3.2 c-2 0 -2.48 -1.16 -2.88 -3.32 c-1.04 -5.76 -6.76 -8.48 -11.24 -8.48 z M68.379 24.32 l0.52 0 c1.96 0 5.4 0.56 8.04 2.72 l0.08 -0.08 c-1.2 -3.44 -2.72 -6.8 -4.68 -9.92 c-1.6 2.4 -2.92 4.8 -3.96 7.28 z M98.852 34.68 c3.28 -5.76 4.88 -11.72 5.52 -18.32 c0.24 -2.44 0.4 -4 2.92 -4 c1.4 0 2.52 0.8 2.52 2.88 c0 5.48 -3.28 16.04 -6.12 20.84 c-1.36 2.28 -2.32 4.16 -4.84 4.16 s-3.48 -1.88 -4.84 -4.16 c-2.84 -4.8 -6.12 -15.36 -6.12 -20.84 c0 -2.08 1.12 -2.88 2.52 -2.88 c2.52 0 2.68 1.56 2.92 4 c0.64 6.6 2.24 12.56 5.52 18.32 z M119.965 17.04 l0 3.44 l9.6 0 c1.36 0 2.44 0.72 2.44 2.28 s-1.08 2.28 -2.44 2.28 l-9.6 0 l0 10.4 l10 0 c1.36 0 2.44 0.72 2.44 2.28 s-1.08 2.28 -2.44 2.28 l-11.8 0 c-2.64 0 -3.48 -1.36 -3.48 -3.44 l0 -21.36 c0 -1.52 0.84 -2.72 2.2 -2.72 l13.08 0 c1.36 0 2.44 0.72 2.44 2.28 s-1.08 2.28 -2.44 2.28 l-10 0 z M137.87800000000001 36.56 l0 -21.48 c0 -1.52 0.84 -2.72 2.52 -2.72 s2.52 1.2 2.52 2.72 l0 20.12 l7.72 0 c1.44 0 2.6 0.76 2.6 2.4 s-1.16 2.4 -2.6 2.4 l-9.28 0 c-2.64 0 -3.48 -1.36 -3.48 -3.44 z"></path></g>
			</g>
		</svg>
	